<?xml version="1.0" standalone="yes"?>
<svg xmlns="http://www.w3.org/2000/svg" width="696" height="67">
<path style="fill:#f1ece1; stroke:none;" d="M0 0C1.1946 7.10866 8.93572 8.77972 15 10.6343C25.0863 13.7188 36.5736 15.1769 47.0895 13.625C54.5391 12.5256 63.1619 7.59624 69.9097 12.8627C74.3254 16.3089 77.365 21.1188 82.0039 24.3773C94.7873 33.3568 109.821 35.5374 125 33.8333C130.684 33.1952 135.742 30.9744 141 28.8696C143.677 27.798 146.846 26.0672 149.83 26.6883C155.182 27.8019 160.013 35.1892 163.91 38.6744C171.303 45.2855 181.257 51.169 191 53.4753C206.681 57.1872 224.828 57.7908 240 51.9113C244.8 50.0512 249.797 47.7788 254.004 44.7948C257.368 42.4086 261.457 38.4399 265.91 38.5417C270.227 38.6403 274.127 43.6634 277.282 46.1134C283.402 50.8671 290.567 54.4735 298.09 56.4468C307.719 58.9726 320.297 58.767 329.83 55.9066C334.269 54.5748 338.347 51.6399 342.996 50.9738C347.418 50.3401 350.566 53.7474 354.015 55.936C359.035 59.1219 364.481 62.0755 370.285 63.5448C397.842 70.5199 435.136 57.5931 438 25C446.582 29.0598 453.958 35.2903 463 38.5571C480.844 45.0041 505.776 43.1775 522.714 34.8264C530.105 31.1828 537.039 25.7511 542.729 19.8264C545.753 16.678 549.169 10.959 554 10.6574C558.667 10.366 563.766 14.6957 568 16.294C576.558 19.5246 584.859 20.7001 594 19.8302C601.943 19.0743 609.904 17.8828 617 13.9599C622.377 10.9871 627.505 4.38125 634 4.37037C640.036 4.36026 646.009 8.62896 652 9.67901C666.395 12.2022 684.082 9.68525 696 1C690.538 -1.29214 682.887 0 677 0L636 0L494 0L0 0z"/>
<path style="fill:#ffffff; stroke:none;" d="M695 1C683.778 9.77299 665.886 12.3941 652 9.48611C645.201 8.06224 638.107 2.86193 631.015 4.53704C625.767 5.77641 621.6 10.7001 617 13.385C609.142 17.9715 601.064 19.9854 592 20C583.354 20.0139 576.102 19.1786 568 15.9105C563.332 14.0275 557.326 8.94455 552 10.6435C547.322 12.1356 544.321 17.4014 541 20.6998C535.658 26.005 529.373 30.8259 522.714 34.3696C505.944 43.2947 480.663 45.0914 463 38.1736C454.216 34.7333 446.886 27.8314 438 25C433.31 56.3121 399.124 70.4419 371.17 63.5448C365.043 62.033 359.263 58.705 354.015 55.3056C349.665 52.4881 346.455 49.5213 341 51.108C336.823 52.323 333.066 54.6957 328.91 55.9066C317.917 59.1107 303.706 58.7777 293 54.689C286.906 52.3617 281.418 48.8874 276.424 44.7145C273.488 42.2615 270.051 38.3106 265.91 38.2631C259.298 38.1873 253.878 44.7212 248.424 47.6049C238.116 53.0559 227.109 56.1504 215.424 56.1512C199.065 56.1524 183.683 52.2586 170.09 42.946C163.881 38.6922 157.452 27.4807 149.83 26.3688C145.853 25.7885 141.569 28.2465 138 29.6597C131.409 32.2698 124.239 35.3135 117 34.9066C104.85 34.2238 93.1083 31.4496 83 24.3773C77.5175 20.5415 73.4122 12.7505 66.9961 10.5926C63.5031 9.41778 59.469 10.7017 56 11.3997C49.9298 12.621 44.2209 13.7737 38 13.9645C24.1488 14.3893 12.4201 9.12022 0 4L0 67L696 67L696 22C696 15.5798 697.497 6.95096 695 1z"/>
</svg>
